<?xml version="1.0" encoding="utf-8" ?><svg xmlns="http://www.w3.org/2000/svg" xmlns:xlink="http://www.w3.org/1999/xlink" width="1024" height="1024" viewBox="0 0 1024 1024"><path d="M372.859 448.177C373.543 453.426 372.005 467.741 372.003 474.414C372.009 502.835 371.684 531.254 371.028 559.667C370.677 577.436 369.011 600.915 371.639 617.725C376.343 647.817 396.121 679.775 410.122 707.436L486.078 856.019C494.396 872.075 502.6 888.19 510.688 904.362C514.013 910.849 520.088 921.35 522.664 927.728L522.926 928.388C514.653 923.37 505.106 918.422 496.573 913.524C468.459 897.663 440.513 881.507 412.739 865.058C364.396 838.015 316.36 810.428 268.64 782.302C257.432 775.838 246.184 769.445 234.897 763.121C227.946 759.199 219.333 754.816 213.111 749.887C197.284 737.812 192.416 713.641 202.355 696.406C209.634 683.785 219.973 670.342 228.331 658.092L293.582 563.655L347.5 485.282L363.005 462.27C365.88 457.968 369.658 451.927 372.859 448.177Z"/><path d="M869.307 301.668C869.935 303.163 869.838 304.445 870.037 306.068L870.024 334.129L868.249 543.144L867.901 613.997C867.806 624.476 868.056 637.457 866.971 647.555C865.577 656.173 861.169 663.332 855.317 669.353C840.127 684.98 820.994 681.866 800.726 681.692L732.256 680.5L526.592 677.999C536.85 670.261 552.213 660.818 563.22 653.757C584.589 640.07 606.03 626.497 627.542 613.037C638.372 606.242 657.477 595.293 666.399 587.588C680.341 575.548 694.713 553.68 705.575 538.202C721.026 515.972 736.341 493.649 751.522 471.234C772.912 440.032 794.488 408.957 816.248 378.013C833.875 352.641 851.368 326.827 869.307 301.668Z"/><path d="M501.189 95.2845C504.643 97.1026 507.951 99.0623 511.29 101.08C525.383 109.597 539.749 117.749 554.029 125.955L674.791 195.549L765.369 247.721C779.431 255.837 794.003 263.483 807.702 272.146C823.531 281.276 833.378 307.59 824.195 324.288C813.939 342.938 798.498 364.327 786.059 382.104L723.941 472.265C700.767 506.874 677.118 541.162 653 575.119C651.977 569.416 652.699 543.96 652.83 537.062L654.049 450.581C654.172 439.228 655.173 417.185 653.684 406.861C652.4 397.847 650.119 389.004 646.882 380.494C642.598 369.41 632.948 351.823 627.283 340.618L584.678 257.8L528.44 147.788C519.531 130.409 509.815 112.719 501.189 95.2845Z"/><path d="M155.006 648.888C154.87 638.311 155.346 628.044 155.449 617.498L155.964 553.006C156.341 513.769 156.082 474.194 157.224 435.011C157.536 424.066 157.647 413.117 157.559 402.168C157.57 383.947 156.193 369.257 170.209 355.53C179.235 346.691 189.442 342.446 202.248 342.546C234.704 343.127 267.284 343.884 299.751 344.155C346.319 344.435 392.885 345.03 439.446 345.941C458.616 346.217 477.024 345.935 496.333 346.498C490.823 352.171 473.713 361.261 466.208 365.955C444.788 379.482 423.459 393.151 402.22 406.959C384.791 418.294 365.966 427.795 352.075 443.277C337.072 460 325.24 478.777 312.233 497.016C274.038 549.921 237.589 604.191 200.436 657.849L172.541 698.367C170.836 700.854 161.266 714.956 159.76 716.451C156.322 717.008 156.685 720.207 155.604 720.029C154.584 718.972 155.838 698.596 154.518 694.186C154.308 689.795 154.474 685.205 154.557 680.794C156.053 679.388 155.847 651.991 155.006 648.888Z"/><path d="M385.533 609.878C392.845 614.346 402.212 619.182 409.825 623.428L465.809 654.535L504.381 676.132C511.071 679.897 517.861 683.591 524.515 687.403C554.16 704.389 588.083 701.543 621.25 702.063C644.87 702.565 668.494 702.911 692.119 703.1L881.769 706.143C874.94 711.146 857.972 720.446 849.884 725.243C833.065 735.363 816.177 745.369 799.223 755.259C787.993 761.871 776.284 768.481 765.333 775.465C742.465 787.926 720.315 801.737 697.826 814.86C664.904 834.071 632.056 853.437 599.086 872.558C590.699 877.422 580.26 884.823 571.481 888.426C561.237 892.635 549.737 892.585 539.53 888.285C532.918 885.477 525.774 879.676 522.001 873.62C513.919 860.649 506.789 845.739 499.769 832.053L463.615 762.198C443.827 724.312 424.328 686.276 405.118 648.095C400.016 637.864 389.362 619.188 385.533 609.878Z"/><path d="M463.259 134.13C500.286 130.841 507.656 158.477 521.712 186.008L549.39 239.022C554.861 249.748 560.287 260.809 566.046 271.37C591.825 318.648 615.332 367.28 640.791 414.71C623.032 405.677 603.906 394.685 586.509 384.896L540.094 359.042L513.323 343.888C502.814 337.895 482.742 326.097 471.018 324.106C455.376 321.45 430.222 321.99 413.75 321.884L142.343 318.477C158.181 309.549 174.121 299.685 189.836 290.564L372.604 183.535L427.029 151.72C438.055 145.304 450.677 135.999 463.259 134.13Z"/><path d="M154.518 694.186C155.838 698.596 154.584 718.972 155.604 720.029C156.685 720.207 156.322 717.008 159.76 716.451C158.012 719.163 155.858 722.518 154.024 725.105C154.068 715.937 153.986 703.034 154.518 694.186Z"/><path d="M155.006 648.888C155.847 651.991 156.053 679.388 154.557 680.794C154.186 675.412 154.463 653.892 155.006 648.888Z"/><path d="M869.307 301.668C871.574 296.829 870.211 305.213 870.037 306.068C869.838 304.445 869.935 303.163 869.307 301.668Z"/></svg>